# xmcd CD database file
#
# Track frame offsets:
#	150
#	16458
#	38837
#	65300
#	76370
#	111227
#	125463
#	138583
#	166688
#	195911
#	218333
#	247613
#
# Disc length: 4669 seconds
#
# Revision: 0
# Processed by: cddbd v1.5.2PL0 Copyright (c) Steve Scherf et al.
# Submitted via: CDex 1.51
#
DISCID=8f123b0c
DTITLE=Papa Mali - Do Your Thing
DYEAR=2007
DGENRE=Blues
TTITLE0=Do Your Thing
TTITLE1=Honeybee
TTITLE2=Eraly in the Morning
TTITLE3=I had the Dream
TTITLE4=Little Moses
TTITLE5=Coffee
TTITLE6=I'm Getting Over It
TTITLE7=Girls in Bossier City
TTITLE8=Sugarland
TTITLE9=True Religion
TTITLE10=Hallelujah I'm a Dreamer
TTITLE11=Data and Videos
EXTD=YEAR: 2007
EXTT0=
EXTT1=
EXTT2=
EXTT3=
EXTT4=
EXTT5=
EXTT6=
EXTT7=
EXTT8=
EXTT9=
EXTT10=
EXTT11=
PLAYORDER=
